# xmcd
#
# Track frame offsets: 
#        150
#        15940
#        30730
#        66205
#        86027
#        101480
#        174977
#        201482
#        215415
#        256110
#        272797
#        292852
#        318907
#
# Disc length: 4594 seconds
#
# Revision: 3
# Processed by: cddbd v1.5.2PL0 Copyright (c) Steve Scherf et al.
# Submitted via: ExactAudioCopyFreeDBPlugin 1.0
#
DISCID=af11f00d
DTITLE=Miles Davis - the very best of Miles Davis
DYEAR=1996
DGENRE=Jazz
TTITLE0=Time after Time
TTITLE1=Summertime
TTITLE2=Bye Bye Blackbird
TTITLE3=It ain´t necessarily so
TTITLE4=Once upon a summertime
TTITLE5=Concierto de Aranjuez
TTITLE6=´Round Midnight
TTITLE7=I don't wanna be kissed (by anyone but you)
TTITLE8=So What
TTITLE9=Jean Pierre
TTITLE10=Human Nature
TTITLE11=Shout
TTITLE12=Milestone
EXTD=
EXTT0=
EXTT1=
EXTT2=
EXTT3=
EXTT4=
EXTT5=
EXTT6=
EXTT7=
EXTT8=
EXTT9=
EXTT10=
EXTT11=
EXTT12=
PLAYORDER=
